<svg width="439" height="198" version="1.1" xmlns="http://www.w3.org/2000/svg" desc="Created with imagetracer.js version 1.2.6" ><path fill="rgb(247,248,248)" stroke="rgb(247,248,248)" stroke-width="1" opacity="1" d="M 7.5 40 L 25.5 46 L 21.5 40 L 29 48.5 L 27.5 48 L 8.5 42 L 7.5 40 Z " /><path fill="rgb(247,248,248)" stroke="rgb(247,248,248)" stroke-width="1" opacity="1" d="M 7.5 43 L 10 47.5 L 24.5 62 L 49.5 82 L 75 96.5 L 72.5 97 Q 35.3 76.7 8 46.5 L 7.5 43 Z " /><path fill="rgb(247,248,248)" stroke="rgb(247,248,248)" stroke-width="1" opacity="1" d="M 33.5 52 L 34.5 54 L 33.5 52 Z " /><path fill="rgb(247,248,248)" stroke="rgb(247,248,248)" stroke-width="1" opacity="1" d="M 40.5 58 L 41.5 60 L 40.5 58 Z " /><path fill="rgb(247,248,248)" stroke="rgb(247,248,248)" stroke-width="1" opacity="1" d="M 201.5 62 L 212 62.5 L 201.5 63 L 201.5 62 Z " /><path fill="rgb(247,248,248)" stroke="rgb(247,248,248)" stroke-width="1" opacity="1" d="M 171.5 63 L 174 63.5 L 171.5 64 L 171.5 63 Z " /><path fill="rgb(247,248,248)" stroke="rgb(247,248,248)" stroke-width="1" opacity="1" d="M 184.5 63 L 187 63.5 L 184.5 64 L 184.5 63 Z " /><path fill="rgb(247,248,248)" stroke="rgb(247,248,248)" stroke-width="1" opacity="1" d="M 195.5 65 Q 199.3 64.3 200 66.5 L 199.5 72 L 199 66 L 195 66 L 195 72.5 L 194 72.5 Q 192.5 66.5 195.5 65 Z " /><path fill="rgb(247,248,248)" stroke="rgb(247,248,248)" stroke-width="1" opacity="1" d="M 158.5 68 L 160 68.5 L 152 74.5 Q 148.8 77.8 150 85.5 L 156.5 93 L 168.5 98 L 173 102.5 L 168.5 99 L 153 92 L 149 85.5 L 149 78.5 L 155.5 70 L 158.5 68 Z " /><path fill="rgb(247,248,248)" stroke="rgb(247,248,248)" stroke-width="1" opacity="1" d="M 212.5 69 L 213 71.5 L 212 71.5 L 212.5 69 Z " /><path fill="rgb(247,248,248)" stroke="rgb(247,248,248)" stroke-width="1" opacity="1" d="M 171.5 74 Q 177.6 72.9 180 75.5 L 177.5 76 Q 176.3 73.8 171.5 75 L 171.5 74 Z " /><path fill="rgb(247,248,248)" stroke="rgb(247,248,248)" stroke-width="1" opacity="1" d="M 198.5 74 L 199 85.5 L 198 85.5 L 198.5 74 Z " /><path fill="rgb(247,248,248)" stroke="rgb(247,248,248)" stroke-width="1" opacity="1" d="M 193.5 75 L 194 86.5 L 193 86.5 L 193.5 75 Z " /><path fill="rgb(247,248,248)" stroke="rgb(247,248,248)" stroke-width="1" opacity="1" d="M 364.5 78 L 367 78.5 L 364.5 79 L 364.5 78 Z " /><path fill="rgb(247,248,248)" stroke="rgb(247,248,248)" stroke-width="1" opacity="1" d="M 223.5 79 L 237 79.5 L 223.5 80 L 217.5 86 L 218.5 83 L 215 85.5 L 212.5 89 L 213 87.5 L 217.5 82 L 219.5 83 L 223.5 79 Z " /><path fill="rgb(247,248,248)" stroke="rgb(247,248,248)" stroke-width="1" opacity="1" d="M 240.5 79 L 251 79.5 L 240 80 L 239.5 84 L 239 80.5 L 240.5 79 Z " /><path fill="rgb(247,248,248)" stroke="rgb(247,248,248)" stroke-width="1" opacity="1" d="M 271.5 79 L 281 79.5 L 271.5 80 L 271.5 79 Z " /><path fill="rgb(247,248,248)" stroke="rgb(247,248,248)" stroke-width="1" opacity="1" d="M 284.5 79 L 294 79.5 L 284.5 80 L 284.5 79 Z " /><path fill="rgb(247,248,248)" stroke="rgb(247,248,248)" stroke-width="1" opacity="1" d="M 311.5 79 L 318 79.5 L 311.5 80 L 311.5 79 Z " /><path fill="rgb(247,248,248)" stroke="rgb(247,248,248)" stroke-width="1" opacity="1" d="M 335.5 79 L 346 79.5 L 335.5 80 L 335.5 79 Z " /><path fill="rgb(247,248,248)" stroke="rgb(247,248,248)" stroke-width="1" opacity="1" d="M 356.5 79 L 359 79.5 L 356.5 80 L 356.5 79 Z " /><path fill="rgb(247,248,248)" stroke="rgb(247,248,248)" stroke-width="1" opacity="1" d="M 385.5 79 L 395 79.5 L 385.5 80 L 385.5 79 Z " /><path fill="rgb(247,248,248)" stroke="rgb(247,248,248)" stroke-width="1" opacity="1" d="M 416.5 79 L 426 79.5 L 416.5 80 L 416.5 79 Z " /><path fill="rgb(247,248,248)" stroke="rgb(247,248,248)" stroke-width="1" opacity="1" d="M 352.5 80 L 355 80.5 L 352.5 81 L 352.5 80 Z " /><path fill="rgb(247,248,248)" stroke="rgb(247,248,248)" stroke-width="1" opacity="1" d="M 377.5 81 L 378.5 83 L 377.5 81 Z " /><path fill="rgb(247,248,248)" stroke="rgb(247,248,248)" stroke-width="1" opacity="1" d="M 171.5 82 L 176 84.5 L 174.5 85 L 171.5 82 Z " /><path fill="rgb(247,248,248)" stroke="rgb(247,248,248)" stroke-width="1" opacity="1" d="M 235.5 82 L 236 83.5 L 235 86.5 L 238 95.5 L 237 95.5 L 234 84.5 L 235.5 82 Z " /><path fill="rgb(247,248,248)" stroke="rgb(247,248,248)" stroke-width="1" opacity="1" d="M 384.5 82 L 387 91.5 L 386 91.5 L 384 85.5 L 384.5 82 Z " /><path fill="rgb(247,248,248)" stroke="rgb(247,248,248)" stroke-width="1" opacity="1" d="M 211.5 83 L 212 85.5 L 211 85.5 L 211.5 83 Z " /><path fill="rgb(247,248,248)" stroke="rgb(247,248,248)" stroke-width="1" opacity="1" d="M 303.5 83 L 303 84.5 L 299.5 97 L 298 94.5 L 303.5 83 Z " /><path fill="rgb(247,248,248)" stroke="rgb(247,248,248)" stroke-width="1" opacity="1" d="M 328.5 83 L 328 84.5 L 324.5 94 L 324 92.5 L 328.5 83 Z " /><path fill="rgb(247,248,248)" stroke="rgb(247,248,248)" stroke-width="1" opacity="1" d="M 408.5 83 L 409 84.5 L 403 96.5 L 403 101.5 L 404 101.5 L 404.5 100 L 405 101.5 L 403.5 104 L 401 98.5 L 408.5 83 Z " /><path fill="rgb(247,248,248)" stroke="rgb(247,248,248)" stroke-width="1" opacity="1" d="M 306.5 85 L 307 86.5 L 304.5 92 L 304 90.5 L 306.5 85 Z " /><path fill="rgb(247,248,248)" stroke="rgb(247,248,248)" stroke-width="1" opacity="1" d="M 262.5 86 L 263 87.5 L 259.5 94 L 259 92.5 L 262.5 86 Z " /><path fill="rgb(247,248,248)" stroke="rgb(247,248,248)" stroke-width="1" opacity="1" d="M 181.5 87 L 184 88.5 L 182.5 88 L 181.5 87 Z " /><path fill="rgb(247,248,248)" stroke="rgb(247,248,248)" stroke-width="1" opacity="1" d="M 343.5 87 L 345 89.5 L 344 89.5 L 343.5 87 Z " /><path fill="rgb(247,248,248)" stroke="rgb(247,248,248)" stroke-width="1" opacity="1" d="M 197.5 88 L 198 99.5 L 197 99.5 L 197.5 88 Z " /><path fill="rgb(247,248,248)" stroke="rgb(247,248,248)" stroke-width="1" opacity="1" d="M 284.5 88 L 285 90.5 L 284 90.5 L 284.5 88 Z " /><path fill="rgb(247,248,248)" stroke="rgb(247,248,248)" stroke-width="1" opacity="1" d="M 192.5 89 L 193 97.5 L 191 96.5 L 192.5 89 Z " /><path fill="rgb(247,248,248)" stroke="rgb(247,248,248)" stroke-width="1" opacity="1" d="M 214.5 89 L 212 92.5 L 211.5 94 L 211 90.5 Q 212.8 92.1 214.5 89 Z " /><path fill="rgb(247,248,248)" stroke="rgb(247,248,248)" stroke-width="1" opacity="1" d="M 350.5 89 L 351.5 91 L 350.5 89 Z " /><path fill="rgb(247,248,248)" stroke="rgb(247,248,248)" stroke-width="1" opacity="1" d="M 357.5 89 Q 363 88 364 91.5 L 362.5 94 L 360 93.5 L 363 93 L 361.5 90 Q 356.5 91 357.5 89 Z " /><path fill="rgb(247,248,248)" stroke="rgb(247,248,248)" stroke-width="1" opacity="1" d="M 383.5 89 L 384 92.5 L 383 92.5 L 383.5 89 Z " /><path fill="rgb(247,248,248)" stroke="rgb(247,248,248)" stroke-width="1" opacity="1" d="M 228.5 90 L 226.5 93 L 228.5 90 Z " /><path fill="rgb(247,248,248)" stroke="rgb(247,248,248)" stroke-width="1" opacity="1" d="M 279.5 91 L 280 93.5 L 279 93.5 L 279.5 91 Z " /><path fill="rgb(247,248,248)" stroke="rgb(247,248,248)" stroke-width="1" opacity="1" d="M 285.5 92 L 286 94.5 L 285 94.5 L 285.5 92 Z " /><path fill="rgb(247,248,248)" stroke="rgb(247,248,248)" stroke-width="1" opacity="1" d="M 189.5 93 L 190.5 95 L 189.5 93 Z " /><path fill="rgb(247,248,248)" stroke="rgb(247,248,248)" stroke-width="1" opacity="1" d="M 383.5 95 L 384 98.5 L 383 98.5 L 383.5 95 Z " /><path fill="rgb(247,248,248)" stroke="rgb(247,248,248)" stroke-width="1" opacity="1" d="M 323.5 96 L 326 100.5 L 324 101 L 323.5 96 Z " /><path fill="rgb(247,248,248)" stroke="rgb(247,248,248)" stroke-width="1" opacity="1" d="M 60.5 97 L 60 98.5 L 63.5 103 L 59 98.5 L 60.5 97 Z " /><path fill="rgb(247,248,248)" stroke="rgb(247,248,248)" stroke-width="1" opacity="1" d="M 138.5 97 L 137.5 99 L 138.5 97 Z " /><path fill="rgb(247,248,248)" stroke="rgb(247,248,248)" stroke-width="1" opacity="1" d="M 257.5 97 L 258 99 L 256 98.5 L 257.5 97 Z " /><path fill="rgb(247,248,248)" stroke="rgb(247,248,248)" stroke-width="1" opacity="1" d="M 349.5 97 L 348.5 99 L 342 102 L 339 107.5 L 339 114.5 L 342.5 119 L 346.5 121 L 357 121.5 L 346.5 122 L 339 116.5 L 338 107.5 L 342.5 101 L 349.5 97 Z " /><path fill="rgb(247,248,248)" stroke="rgb(247,248,248)" stroke-width="1" opacity="1" d="M 281.5 98 L 284 107.5 L 283 107.5 L 281.5 98 Z " /><path fill="rgb(247,248,248)" stroke="rgb(247,248,248)" stroke-width="1" opacity="1" d="M 313.5 98 L 314 101.5 L 312 100.5 L 313.5 98 Z " /><path fill="rgb(247,248,248)" stroke="rgb(247,248,248)" stroke-width="1" opacity="1" d="M 287.5 99 L 288 101.5 L 287 101.5 L 287.5 99 Z " /><path fill="rgb(247,248,248)" stroke="rgb(247,248,248)" stroke-width="1" opacity="1" d="M 300 99 Q 302.7 97.9 302 100.5 L 300 101.5 L 300 99 Z " /><path fill="rgb(247,248,248)" stroke="rgb(247,248,248)" stroke-width="1" opacity="1" d="M 389.5 99 L 392 107.5 L 391 107.5 L 389.5 99 Z " /><path fill="rgb(247,248,248)" stroke="rgb(247,248,248)" stroke-width="1" opacity="1" d="M 384.5 100 L 391 119.5 L 391 124.5 L 385 138 L 395.5 137 L 394.5 139 L 384.5 139 L 384 136.5 L 390 124.5 L 390 120.5 L 384 103.5 L 384.5 100 Z " /><path fill="rgb(247,248,248)" stroke="rgb(247,248,248)" stroke-width="1" opacity="1" d="M 210.5 101 L 212 103.5 L 210.5 110 L 210.5 101 Z " /><path fill="rgb(247,248,248)" stroke="rgb(247,248,248)" stroke-width="1" opacity="1" d="M 196.5 102 L 197 113.5 L 196 113.5 L 196.5 102 Z " /><path fill="rgb(247,248,248)" stroke="rgb(247,248,248)" stroke-width="1" opacity="1" d="M 361.5 102 L 364 102.5 L 361.5 103 L 361.5 102 Z " /><path fill="rgb(247,248,248)" stroke="rgb(247,248,248)" stroke-width="1" opacity="1" d="M 133.5 103 L 130.5 107 L 133.5 103 Z " /><path fill="rgb(247,248,248)" stroke="rgb(247,248,248)" stroke-width="1" opacity="1" d="M 240.5 103 L 244 114.5 L 243 114.5 L 240 105.5 L 240.5 103 Z " /><path fill="rgb(247,248,248)" stroke="rgb(247,248,248)" stroke-width="1" opacity="1" d="M 288.5 103 L 289 105.5 L 288 105.5 L 288.5 103 Z " /><path fill="rgb(247,248,248)" stroke="rgb(247,248,248)" stroke-width="1" opacity="1" d="M 314.5 103 L 315 105.5 L 314 105.5 L 314.5 103 Z " /><path fill="rgb(247,248,248)" stroke="rgb(247,248,248)" stroke-width="1" opacity="1" d="M 66.5 104 L 67.5 106 L 66.5 104 Z " /><path fill="rgb(247,248,248)" stroke="rgb(247,248,248)" stroke-width="1" opacity="1" d="M 382.5 104 L 383 106.5 L 382 106.5 L 382.5 104 Z " /><path fill="rgb(247,248,248)" stroke="rgb(247,248,248)" stroke-width="1" opacity="1" d="M 310.5 105 L 313 118.5 L 314.5 120 L 329.5 119 L 329.5 120 L 313.5 121 L 310 111.5 L 310.5 105 Z " /><path fill="rgb(247,248,248)" stroke="rgb(247,248,248)" stroke-width="1" opacity="1" d="M 363.5 105 L 364 110 L 368 107.5 L 368.5 105 L 369 107.5 Q 367.7 111.8 363 111 L 363.5 105 Z " /><path fill="rgb(247,248,248)" stroke="rgb(247,248,248)" stroke-width="1" opacity="1" d="M 69.5 106 L 71 109 L 55.5 109 L 53 110.5 Q 63.3 120.2 77.5 126 L 84.5 128 L 89.5 128 L 91.5 127 L 91.5 128 L 83.5 129 L 70.5 124 L 51 111 L 51.5 108 L 69.5 108 L 69.5 106 Z " /><path fill="rgb(247,248,248)" stroke="rgb(247,248,248)" stroke-width="1" opacity="1" d="M 191.5 107 L 192 112.5 L 191 112.5 L 190 108.5 L 191.5 107 Z " /><path fill="rgb(247,248,248)" stroke="rgb(247,248,248)" stroke-width="1" opacity="1" d="M 289.5 107 L 291 112.5 L 290 112.5 L 289.5 107 Z " /><path fill="rgb(247,248,248)" stroke="rgb(247,248,248)" stroke-width="1" opacity="1" d="M 315.5 107 L 316 109.5 L 315 109.5 L 315.5 107 Z " /><path fill="rgb(247,248,248)" stroke="rgb(247,248,248)" stroke-width="1" opacity="1" d="M 148 109 L 152.5 110 L 154 109.5 L 150.5 111 L 149 110.5 L 147 118 Q 154.9 121.2 168 120.5 L 154.5 121 L 149.5 120 L 146 117.5 L 148 109 Z " /><path fill="rgb(247,248,248)" stroke="rgb(247,248,248)" stroke-width="1" opacity="1" d="M 214.5 109 L 217 112.5 L 215 111.5 L 214.5 109 Z " /><path fill="rgb(247,248,248)" stroke="rgb(247,248,248)" stroke-width="1" opacity="1" d="M 284.5 109 L 287 118.5 L 286 118.5 L 284.5 109 Z " /><path fill="rgb(247,248,248)" stroke="rgb(247,248,248)" stroke-width="1" opacity="1" d="M 357.5 109 L 358.5 111 L 357.5 109 Z " /><path fill="rgb(247,248,248)" stroke="rgb(247,248,248)" stroke-width="1" opacity="1" d="M 189.5 110 L 185.5 115 L 189.5 110 Z " /><path fill="rgb(247,248,248)" stroke="rgb(247,248,248)" stroke-width="1" opacity="1" d="M 210.5 111 L 215.5 120 Q 227.9 121.4 235.5 118 L 234.5 120 L 214 121 L 211 114 Q 208.3 115.1 209 112.5 L 210.5 111 Z " /><path fill="rgb(247,248,248)" stroke="rgb(247,248,248)" stroke-width="1" opacity="1" d="M 125.5 112 L 112.5 126 L 108.5 129 L 105.5 129 L 105.5 128 L 109.5 127 L 125.5 112 Z " /><path fill="rgb(247,248,248)" stroke="rgb(247,248,248)" stroke-width="1" opacity="1" d="M 291.5 114 L 292 116.5 L 291 116.5 L 291.5 114 Z " /><path fill="rgb(247,248,248)" stroke="rgb(247,248,248)" stroke-width="1" opacity="1" d="M 190.5 116 L 191 120 L 202 120.5 L 190 121 L 190.5 116 Z " /><path fill="rgb(247,248,248)" stroke="rgb(247,248,248)" stroke-width="1" opacity="1" d="M 369.5 116 L 370 118.5 L 369 118.5 L 369.5 116 Z " /><path fill="rgb(247,248,248)" stroke="rgb(247,248,248)" stroke-width="1" opacity="1" d="M 395.5 118 L 396 121.5 L 394.5 124 L 394 122.5 L 395.5 118 Z " /><path fill="rgb(247,248,248)" stroke="rgb(247,248,248)" stroke-width="1" opacity="1" d="M 169.5 119 L 173 119.5 L 169.5 120 L 169.5 119 Z " /><path fill="rgb(247,248,248)" stroke="rgb(247,248,248)" stroke-width="1" opacity="1" d="M 203.5 119 L 209 119.5 L 203.5 120 L 203.5 119 Z " /><path fill="rgb(247,248,248)" stroke="rgb(247,248,248)" stroke-width="1" opacity="1" d="M 298.5 119 L 304 119.5 L 297.5 121 L 287.5 121 L 287.5 120 L 297.5 120 L 298.5 119 Z " /><path fill="rgb(247,248,248)" stroke="rgb(247,248,248)" stroke-width="1" opacity="1" d="M 363.5 119 Q 366.4 122.6 374.5 121 L 376 120.5 L 374.5 122 L 364 122 L 363.5 119 Z " /><path fill="rgb(247,248,248)" stroke="rgb(247,248,248)" stroke-width="1" opacity="1" d="M 95.5 125 L 97 125.5 L 93.5 127 L 93.5 126 L 95.5 125 Z " /><path fill="rgb(247,248,248)" stroke="rgb(247,248,248)" stroke-width="1" opacity="1" d="M 243.5 128 L 244 129.5 L 240 138 L 250.5 137 L 249.5 139 L 239.5 139 L 239 136.5 L 243.5 128 Z " /><path fill="rgb(247,248,248)" stroke="rgb(247,248,248)" stroke-width="1" opacity="1" d="M 102.5 129 L 106 130.5 L 89.5 142 L 78 142 Q 76.8 139 80.5 140 L 94 134.5 L 93.5 133 L 96.5 134 L 104 130.5 L 102.5 129 Z M 100 133 L 82 140 L 82 141 L 89 141 L 101 134 L 100 133 Z " /><path fill="rgb(247,248,248)" stroke="rgb(247,248,248)" stroke-width="1" opacity="1" d="M 391.5 129 L 392 130.5 L 389.5 135 L 389 133.5 L 391.5 129 Z " /><path fill="rgb(247,248,248)" stroke="rgb(247,248,248)" stroke-width="1" opacity="1" d="M 79.5 132 L 79 133.5 L 78.5 135 L 78 133.5 L 79.5 132 Z " /><path fill="rgb(254,254,254)" stroke="rgb(254,254,254)" stroke-width="1" opacity="1" d="M 11.5 50 L 21.5 61 L 11.5 50 Z " /><path fill="rgb(254,254,254)" stroke="rgb(254,254,254)" stroke-width="1" opacity="1" d="M 27.5 65 L 29.5 68 L 27.5 65 Z " /><path fill="rgb(254,254,254)" stroke="rgb(254,254,254)" stroke-width="1" opacity="1" d="M 157.5 68 L 156.5 70 L 157.5 68 Z " /><path fill="rgb(254,254,254)" stroke="rgb(254,254,254)" stroke-width="1" opacity="1" d="M 33.5 70 L 35.5 73 L 33.5 70 Z " /><path fill="rgb(254,254,254)" stroke="rgb(254,254,254)" stroke-width="1" opacity="1" d="M 154.5 70 L 151.5 74 L 154.5 70 Z " /><path fill="rgb(254,254,254)" stroke="rgb(254,254,254)" stroke-width="1" opacity="1" d="M 193.5 72 L 194 74.5 L 193 74.5 L 193.5 72 Z " /><path fill="rgb(254,254,254)" stroke="rgb(254,254,254)" stroke-width="1" opacity="1" d="M 38.5 74 L 39.5 76 L 38.5 74 Z " /><path fill="rgb(254,254,254)" stroke="rgb(254,254,254)" stroke-width="1" opacity="1" d="M 173.5 75 L 177 75.5 L 173.5 76 L 173.5 75 Z " /><path fill="rgb(254,254,254)" stroke="rgb(254,254,254)" stroke-width="1" opacity="1" d="M 183.5 75 L 184 76.5 L 181.5 78 L 179 76.5 L 180.5 76 L 183 77 L 183.5 75 Z " /><path fill="rgb(254,254,254)" stroke="rgb(254,254,254)" stroke-width="1" opacity="1" d="M 42.5 77 L 44.5 80 L 42.5 77 Z " /><path fill="rgb(254,254,254)" stroke="rgb(254,254,254)" stroke-width="1" opacity="1" d="M 281.5 79 L 284 79.5 Q 281.9 82.8 281.5 79 Z " /><path fill="rgb(254,254,254)" stroke="rgb(254,254,254)" stroke-width="1" opacity="1" d="M 334.5 79 L 333.5 81 L 334.5 79 Z " /><path fill="rgb(254,254,254)" stroke="rgb(254,254,254)" stroke-width="1" opacity="1" d="M 46.5 80 L 47.5 82 L 46.5 80 Z " /><path fill="rgb(254,254,254)" stroke="rgb(254,254,254)" stroke-width="1" opacity="1" d="M 148.5 80 L 149 83.5 L 148 83.5 L 148.5 80 Z " /><path fill="rgb(254,254,254)" stroke="rgb(254,254,254)" stroke-width="1" opacity="1" d="M 349.5 81 L 348.5 83 L 346.5 84 L 347.5 82 L 349.5 81 Z " /><path fill="rgb(254,254,254)" stroke="rgb(254,254,254)" stroke-width="1" opacity="1" d="M 216.5 82 L 215.5 84 L 216.5 82 Z " /><path fill="rgb(254,254,254)" stroke="rgb(254,254,254)" stroke-width="1" opacity="1" d="M 236.5 82 L 239 82.5 L 236.5 83 L 236.5 82 Z " /><path fill="rgb(254,254,254)" stroke="rgb(254,254,254)" stroke-width="1" opacity="1" d="M 264.5 82 L 268 82.5 L 263.5 84 L 264.5 82 Z " /><path fill="rgb(254,254,254)" stroke="rgb(254,254,254)" stroke-width="1" opacity="1" d="M 303.5 82 L 307 82.5 L 303.5 83 L 303.5 82 Z " /><path fill="rgb(254,254,254)" stroke="rgb(254,254,254)" stroke-width="1" opacity="1" d="M 328.5 82 L 333 82.5 L 327.5 84 L 328.5 82 Z " /><path fill="rgb(254,254,254)" stroke="rgb(254,254,254)" stroke-width="1" opacity="1" d="M 379.5 82 L 383 82.5 L 379.5 83 L 379.5 82 Z " /><path fill="rgb(254,254,254)" stroke="rgb(254,254,254)" stroke-width="1" opacity="1" d="M 408.5 82 L 412 82.5 L 408.5 83 L 408.5 82 Z " /><path fill="rgb(254,254,254)" stroke="rgb(254,254,254)" stroke-width="1" opacity="1" d="M 50.5 83 L 51.5 85 L 50.5 83 Z " /><path fill="rgb(254,254,254)" stroke="rgb(254,254,254)" stroke-width="1" opacity="1" d="M 143.5 84 L 144.5 86 L 143.5 84 Z " /><path fill="rgb(254,254,254)" stroke="rgb(254,254,254)" stroke-width="1" opacity="1" d="M 53.5 85 L 54.5 87 L 53.5 85 Z " /><path fill="rgb(254,254,254)" stroke="rgb(254,254,254)" stroke-width="1" opacity="1" d="M 192.5 86 L 193 88.5 L 192 88.5 L 192.5 86 Z " /><path fill="rgb(254,254,254)" stroke="rgb(254,254,254)" stroke-width="1" opacity="1" d="M 56.5 87 L 60 89.5 L 58.5 89 L 56.5 87 Z " /><path fill="rgb(254,254,254)" stroke="rgb(254,254,254)" stroke-width="1" opacity="1" d="M 150.5 88 L 152.5 91 L 150.5 88 Z " /><path fill="rgb(254,254,254)" stroke="rgb(254,254,254)" stroke-width="1" opacity="1" d="M 355 89 L 359 90.5 L 357.5 91 L 355 90.5 L 355 89 Z " /><path fill="rgb(254,254,254)" stroke="rgb(254,254,254)" stroke-width="1" opacity="1" d="M 61.5 90 L 65 92.5 L 63.5 92 L 61.5 90 Z " /><path fill="rgb(254,254,254)" stroke="rgb(254,254,254)" stroke-width="1" opacity="1" d="M 187.5 90 L 189.5 93 L 187.5 90 Z " /><path fill="rgb(254,254,254)" stroke="rgb(254,254,254)" stroke-width="1" opacity="1" d="M 344.5 90 L 345.5 92 L 350.5 90 L 350.5 91 L 345.5 93 L 344.5 90 Z " /><path fill="rgb(254,254,254)" stroke="rgb(254,254,254)" stroke-width="1" opacity="1" d="M 360.5 90 L 363 91.5 L 361.5 91 L 360.5 90 Z " /><path fill="rgb(254,254,254)" stroke="rgb(254,254,254)" stroke-width="1" opacity="1" d="M 154.5 92 L 155.5 94 L 154.5 92 Z " /><path fill="rgb(254,254,254)" stroke="rgb(254,254,254)" stroke-width="1" opacity="1" d="M 258.5 93 L 259 94.5 L 257.5 97 L 257 95.5 L 258.5 93 Z " /><path fill="rgb(254,254,254)" stroke="rgb(254,254,254)" stroke-width="1" opacity="1" d="M 157.5 94 L 162 96.5 L 160.5 97 L 157.5 94 Z " /><path fill="rgb(254,254,254)" stroke="rgb(254,254,254)" stroke-width="1" opacity="1" d="M 70.5 95 L 71.5 97 L 65 96.5 L 70.5 95 Z " /><path fill="rgb(254,254,254)" stroke="rgb(254,254,254)" stroke-width="1" opacity="1" d="M 352.5 95 L 354 95.5 L 351.5 97 L 352.5 95 Z " /><path fill="rgb(254,254,254)" stroke="rgb(254,254,254)" stroke-width="1" opacity="1" d="M 165.5 98 L 170 100.5 L 168.5 100 Q 164.7 99.8 165.5 98 Z " /><path fill="rgb(254,254,254)" stroke="rgb(254,254,254)" stroke-width="1" opacity="1" d="M 344.5 99 L 343.5 101 L 344.5 99 Z " /><path fill="rgb(254,254,254)" stroke="rgb(254,254,254)" stroke-width="1" opacity="1" d="M 64.5 103 L 65.5 105 L 64.5 103 Z " /><path fill="rgb(254,254,254)" stroke="rgb(254,254,254)" stroke-width="1" opacity="1" d="M 172.5 103 L 173 106.5 L 172 106.5 L 172.5 103 Z " /><path fill="rgb(254,254,254)" stroke="rgb(254,254,254)" stroke-width="1" opacity="1" d="M 360.5 103 Q 364.9 101.5 364 104.5 L 362.5 104 Q 359.5 104.5 360.5 103 Z " /><path fill="rgb(254,254,254)" stroke="rgb(254,254,254)" stroke-width="1" opacity="1" d="M 68.5 106 L 69.5 108 L 68.5 106 Z " /><path fill="rgb(254,254,254)" stroke="rgb(254,254,254)" stroke-width="1" opacity="1" d="M 357.5 106 L 358 108.5 L 357 108.5 L 357.5 106 Z " /><path fill="rgb(254,254,254)" stroke="rgb(254,254,254)" stroke-width="1" opacity="1" d="M 50.5 108 L 51 110.5 L 50 110.5 L 50.5 108 Z " /><path fill="rgb(254,254,254)" stroke="rgb(254,254,254)" stroke-width="1" opacity="1" d="M 337.5 108 L 338 113.5 L 337 113.5 L 337.5 108 Z " /><path fill="rgb(254,254,254)" stroke="rgb(254,254,254)" stroke-width="1" opacity="1" d="M 128.5 109 L 126.5 112 L 128.5 109 Z " /><path fill="rgb(254,254,254)" stroke="rgb(254,254,254)" stroke-width="1" opacity="1" d="M 52.5 111 L 54.5 114 L 52.5 111 Z " /><path fill="rgb(254,254,254)" stroke="rgb(254,254,254)" stroke-width="1" opacity="1" d="M 57.5 115 L 59.5 118 L 57.5 115 Z " /><path fill="rgb(254,254,254)" stroke="rgb(254,254,254)" stroke-width="1" opacity="1" d="M 145.5 116 L 147 118.5 L 145 119 L 145.5 116 Z " /><path fill="rgb(254,254,254)" stroke="rgb(254,254,254)" stroke-width="1" opacity="1" d="M 121.5 117 L 114.5 125 L 121.5 117 Z " /><path fill="rgb(254,254,254)" stroke="rgb(254,254,254)" stroke-width="1" opacity="1" d="M 339.5 117 L 342.5 121 L 339.5 117 Z " /><path fill="rgb(254,254,254)" stroke="rgb(254,254,254)" stroke-width="1" opacity="1" d="M 61.5 118 L 62.5 120 L 61.5 118 Z " /><path fill="rgb(254,254,254)" stroke="rgb(254,254,254)" stroke-width="1" opacity="1" d="M 151.5 120 L 154 120.5 L 151.5 121 L 151.5 120 Z " /><path fill="rgb(254,254,254)" stroke="rgb(254,254,254)" stroke-width="1" opacity="1" d="M 168.5 120 L 171 120.5 L 168.5 121 L 168.5 120 Z " /><path fill="rgb(254,254,254)" stroke="rgb(254,254,254)" stroke-width="1" opacity="1" d="M 202.5 120 L 203 122 L 190 121.5 L 201.5 121 L 202.5 120 Z " /><path fill="rgb(254,254,254)" stroke="rgb(254,254,254)" stroke-width="1" opacity="1" d="M 298.5 120 L 299 122 L 287 121.5 L 297.5 121 L 298.5 120 Z " /><path fill="rgb(254,254,254)" stroke="rgb(254,254,254)" stroke-width="1" opacity="1" d="M 312.5 120 L 313.5 121 L 323.5 121 L 325 120.5 L 323.5 122 L 313.5 122 L 312.5 120 Z " /><path fill="rgb(254,254,254)" stroke="rgb(254,254,254)" stroke-width="1" opacity="1" d="M 377.5 120 L 381 120.5 L 377.5 121 L 377.5 120 Z " /><path fill="rgb(254,254,254)" stroke="rgb(254,254,254)" stroke-width="1" opacity="1" d="M 158.5 121 L 165 121.5 L 158.5 122 L 158.5 121 Z " /><path fill="rgb(254,254,254)" stroke="rgb(254,254,254)" stroke-width="1" opacity="1" d="M 214.5 121 L 229 121.5 L 214.5 122 L 214.5 121 Z " /><path fill="rgb(254,254,254)" stroke="rgb(254,254,254)" stroke-width="1" opacity="1" d="M 245.5 121 L 246 123.5 L 242.5 130 L 242 128.5 L 245.5 121 Z " /><path fill="rgb(254,254,254)" stroke="rgb(254,254,254)" stroke-width="1" opacity="1" d="M 68.5 122 L 69.5 124 L 68.5 122 Z " /><path fill="rgb(254,254,254)" stroke="rgb(254,254,254)" stroke-width="1" opacity="1" d="M 348.5 122 L 355 122.5 L 348.5 123 L 348.5 122 Z " /><path fill="rgb(254,254,254)" stroke="rgb(254,254,254)" stroke-width="1" opacity="1" d="M 111.5 126 L 109.5 129 L 111.5 126 Z " /><path fill="rgb(254,254,254)" stroke="rgb(254,254,254)" stroke-width="1" opacity="1" d="M 104.5 129 Q 107.8 127.9 107 130.5 L 103 133.5 L 105.5 130 L 103.5 131 L 104.5 129 Z " /><path fill="rgb(254,254,254)" stroke="rgb(254,254,254)" stroke-width="1" opacity="1" d="M 94.5 133 L 93.5 135 L 94.5 133 Z " /><path fill="rgb(254,254,254)" stroke="rgb(254,254,254)" stroke-width="1" opacity="1" d="M 101.5 134 L 100.5 136 L 101.5 134 Z " /><path fill="rgb(254,254,254)" stroke="rgb(254,254,254)" stroke-width="1" opacity="1" d="M 81.5 136 Q 86 135 87 137.5 L 85.5 137 Q 80.5 138 81.5 136 Z " /><path fill="rgb(254,254,254)" stroke="rgb(254,254,254)" stroke-width="1" opacity="1" d="M 79.5 142 L 88 142.5 L 79.5 143 L 79.5 142 Z " /><path fill="rgb(255,255,255)" stroke="rgb(255,255,255)" stroke-width="1" opacity="1" d="M 0 0 L 439 0 L 439 198 L 0 198 L 0 0 Z M 16 29 L 16 34 L 21 41 L 26 46 L 10 40 L 6 40 Q 7 46 11 51 Q 36 78 70 96 L 65 97 Q 57 95 59 100 L 67 105 L 69 108 L 51 108 L 50 111 L 70 124 L 82 129 L 87 130 L 80 132 L 78 135 L 82 137 L 87 136 L 88 137 L 81 140 L 78 140 L 80 143 L 91 142 L 104 134 L 107 129 L 110 129 L 122 118 Q 121 115 124 116 L 142 94 L 145 89 L 145 86 L 108 66 L 66 47 L 40 36 L 16 29 Z M 200 62 L 200 66 L 194 65 L 192 96 L 190 93 L 185 88 L 173 83 L 168 80 L 169 76 L 172 75 L 179 76 L 183 78 L 185 74 L 189 76 Q 192 72 193 65 L 187 63 L 172 63 L 155 70 Q 150 74 148 81 L 150 89 L 159 96 L 172 103 Q 173 108 171 109 L 163 109 L 154 106 L 153 110 L 149 109 L 145 119 L 159 122 L 171 121 L 185 116 L 190 110 L 191 110 L 190 122 L 203 122 L 203 120 L 209 120 Q 208 115 211 114 L 214 122 L 229 122 L 230 120 L 236 120 L 223 97 L 234 85 L 245 121 L 245 124 L 239 138 L 239 139 L 251 139 L 251 137 L 257 137 L 279 91 L 287 122 L 299 122 L 299 120 L 305 120 L 310 107 L 312 121 L 314 122 L 324 122 Q 325 119 331 120 L 332 115 L 344 88 L 346 93 L 352 91 L 358 91 L 360 90 L 363 93 L 353 95 L 345 99 L 337 109 Q 336 115 339 118 Q 342 122 349 123 L 355 123 L 363 120 L 364 120 L 365 122 L 376 122 L 377 120 L 381 121 L 382 120 L 382 109 L 384 100 L 390 121 L 390 124 L 383 139 L 396 139 L 396 137 L 402 137 L 402 135 L 427 82 L 427 79 L 416 79 L 413 83 L 408 82 L 402 98 L 397 83 L 397 79 L 384 79 L 384 83 L 368 78 L 356 79 L 348 82 L 345 84 L 346 79 L 335 79 L 333 81 Q 334 84 329 82 L 324 91 L 324 96 L 320 83 L 320 79 L 309 79 L 308 83 L 303 82 L 299 94 L 295 79 L 284 79 L 283 80 L 282 79 L 270 79 L 269 83 L 265 82 L 257 98 L 252 79 L 240 79 L 239 82 L 236 82 L 237 79 L 224 79 Q 223 83 217 82 L 212 89 L 211 89 Q 214 83 212 73 L 213 72 L 213 62 L 200 62 Z " /><path fill="rgb(255,255,255)" stroke="rgb(255,255,255)" stroke-width="1" opacity="1" d="M 359.5 104 Q 365.6 102.2 363 109.5 L 359.5 111 Q 357 110 358 105.5 L 359.5 104 Z " /><path fill="rgb(255,255,255)" stroke="rgb(255,255,255)" stroke-width="1" opacity="1" d="M 101.5 130 L 103 130.5 L 99.5 132 L 99.5 131 L 101.5 130 Z " /><path fill="rgb(216,225,231)" stroke="rgb(216,225,231)" stroke-width="1" opacity="1" d="M 18.5 36 L 24.5 43 L 18.5 36 Z " /><path fill="rgb(216,225,231)" stroke="rgb(216,225,231)" stroke-width="1" opacity="1" d="M 37.5 36 L 41 37.5 L 39.5 38 L 37.5 36 Z " /><path fill="rgb(216,225,231)" stroke="rgb(216,225,231)" stroke-width="1" opacity="1" d="M 42.5 38 L 46 39.5 L 44.5 40 L 42.5 38 Z " /><path fill="rgb(216,225,231)" stroke="rgb(216,225,231)" stroke-width="1" opacity="1" d="M 47.5 40 L 55 43.5 L 53.5 44 L 47.5 41 L 47.5 40 Z " /><path fill="rgb(216,225,231)" stroke="rgb(216,225,231)" stroke-width="1" opacity="1" d="M 7.5 41 L 28.5 49 L 29 47.5 L 26.5 44 Q 45.7 64.3 70.5 79 L 95.5 91 L 112 95.5 L 103.5 96 L 102.5 97 L 78.5 97 L 77.5 98 L 61 98.5 L 65.5 103 L 81.5 113 L 92.5 117 L 100.5 118 L 107.5 116 L 107.5 117 L 105 118.5 L 107.5 119 L 119.5 116 L 135 100.5 L 144 86 L 139 83.5 L 140.5 84 L 145 86.5 L 137 99.5 L 115.5 122 L 109.5 127 L 95.5 133 L 86.5 136 L 81.5 136 L 79 135 L 80.5 132 L 90 128.5 L 77.5 126 Q 62.6 119.9 52 109.5 L 53.5 110 L 55.5 109 L 71 109 L 69.5 106 L 60 98.5 L 61.5 97 L 75 96.5 Q 37.1 77.4 10 47.5 L 7 42.5 L 7.5 41 Z M 109 122 L 81 133 L 82 135 Q 100 133 111 123 L 109 122 Z " /><path fill="rgb(216,225,231)" stroke="rgb(216,225,231)" stroke-width="1" opacity="1" d="M 56.5 44 L 62 46.5 L 60.5 47 L 56.5 45 L 56.5 44 Z " /><path fill="rgb(216,225,231)" stroke="rgb(216,225,231)" stroke-width="1" opacity="1" d="M 63.5 47 Q 100.3 62.3 134 80.5 L 132.5 81 Q 99.6 62.9 63.5 48 L 63.5 47 Z " /><path fill="rgb(216,225,231)" stroke="rgb(216,225,231)" stroke-width="1" opacity="1" d="M 174.5 63 L 184 63.5 L 174.5 64 L 174.5 63 Z " /><path fill="rgb(216,225,231)" stroke="rgb(216,225,231)" stroke-width="1" opacity="1" d="M 200 63 L 213 63 L 213 68.5 L 212 68.5 L 212 64 L 201 64 L 200.5 66 L 200 63 Z " /><path fill="rgb(216,225,231)" stroke="rgb(216,225,231)" stroke-width="1" opacity="1" d="M 168.5 64 L 173 64.5 L 166.5 66 L 166.5 65 L 168.5 64 Z " /><path fill="rgb(216,225,231)" stroke="rgb(216,225,231)" stroke-width="1" opacity="1" d="M 185.5 64 L 189 64.5 L 185.5 65 L 185.5 64 Z " /><path fill="rgb(216,225,231)" stroke="rgb(216,225,231)" stroke-width="1" opacity="1" d="M 190.5 65 Q 193.1 64.2 192 67.5 L 191 67.5 L 190.5 65 Z " /><path fill="rgb(216,225,231)" stroke="rgb(216,225,231)" stroke-width="1" opacity="1" d="M 163.5 66 L 165 66.5 L 157 73.5 Q 154.7 76.7 156 83.5 L 160.5 90 L 175.5 97 L 179 100.5 Q 180.3 106.8 176.5 108 L 175 107.5 Q 175.7 110.1 173 109 Q 174.8 100.1 168.5 98 Q 156.9 95.6 151 87.5 L 150 78.5 L 155.5 71 L 163.5 66 Z " /><path fill="rgb(216,225,231)" stroke="rgb(216,225,231)" stroke-width="1" opacity="1" d="M 195 66 Q 201.4 63.7 199 71.5 Q 201.8 73.3 200 79.5 L 199 79.5 L 198.5 74 L 198 85.5 Q 200.8 87.3 199 93.5 L 198 93.5 L 197.5 88 L 197 99.5 Q 199.5 101 198 106.5 L 197 106.5 L 196.5 102 L 196 113.5 L 197 119 L 203 119.5 L 191 120 L 192 107.5 L 190 107.5 L 192 100.5 L 191 97.5 L 193 97.5 L 195 66 Z " /><path fill="rgb(216,225,231)" stroke="rgb(216,225,231)" stroke-width="1" opacity="1" d="M 176.5 72 L 186 73.5 L 183 74 Q 184.3 77 180.5 76 Q 178 73 172 73.5 L 176.5 72 Z " /><path fill="rgb(216,225,231)" stroke="rgb(216,225,231)" stroke-width="1" opacity="1" d="M 189.5 72 L 190 73.5 L 187.5 75 L 187.5 74 Q 190 74.7 189.5 72 Z " /><path fill="rgb(216,225,231)" stroke="rgb(216,225,231)" stroke-width="1" opacity="1" d="M 211.5 72 L 212 82.5 L 211 82.5 L 211.5 72 Z " /><path fill="rgb(216,225,231)" stroke="rgb(216,225,231)" stroke-width="1" opacity="1" d="M 170.5 74 L 168.5 77 L 170.5 74 Z " /><path fill="rgb(216,225,231)" stroke="rgb(216,225,231)" stroke-width="1" opacity="1" d="M 359.5 79 L 371 79.5 L 359.5 80 L 359.5 79 Z " /><path fill="rgb(216,225,231)" stroke="rgb(216,225,231)" stroke-width="1" opacity="1" d="M 168.5 80 L 171.5 84 L 168.5 80 Z " /><path fill="rgb(216,225,231)" stroke="rgb(216,225,231)" stroke-width="1" opacity="1" d="M 223.5 80 L 237 80.5 Q 235.8 83.2 234.5 81 L 223.5 81 L 217 87.5 L 212.5 93 L 212 90.5 L 217.5 83 L 219.5 84 L 223.5 80 Z " /><path fill="rgb(216,225,231)" stroke="rgb(216,225,231)" stroke-width="1" opacity="1" d="M 240.5 80 L 252 80.5 L 240.5 81 L 240.5 80 Z " /><path fill="rgb(216,225,231)" stroke="rgb(216,225,231)" stroke-width="1" opacity="1" d="M 270.5 80 L 281.5 80 L 282 83.5 L 283 83.5 L 283.5 82 L 284 84.5 L 283 86.5 L 285 86.5 L 284 90.5 L 286 90.5 L 285 94.5 L 286 94.5 L 286.5 93 L 287 95.5 L 286 97.5 L 288 97.5 L 287 101.5 L 289 101.5 L 288 105.5 L 289 105.5 L 289.5 104 L 290 106.5 L 289 109.5 L 290 109.5 L 290.5 108 L 291 109.5 L 290 112.5 L 292 112.5 L 291 116.5 L 292 116.5 L 292.5 115 L 293 118 L 303.5 118 L 304.5 117 L 305 119 L 287 120 L 283 101.5 L 278.5 90 L 277 90.5 L 281 81 L 270.5 81 L 270.5 80 Z " /><path fill="rgb(216,225,231)" stroke="rgb(216,225,231)" stroke-width="1" opacity="1" d="M 283.5 80 L 294.5 80 L 295 81.5 L 293.5 81 L 283.5 81 L 283.5 80 Z " /><path fill="rgb(216,225,231)" stroke="rgb(216,225,231)" stroke-width="1" opacity="1" d="M 309.5 80 L 319.5 80 L 320 81.5 L 318.5 81 L 309.5 81 L 309.5 80 Z " /><path fill="rgb(216,225,231)" stroke="rgb(216,225,231)" stroke-width="1" opacity="1" d="M 334.5 80 L 345.5 80 L 346 82.5 L 345 82.5 L 344.5 81 L 334.5 81 L 334.5 80 Z " /><path fill="rgb(216,225,231)" stroke="rgb(216,225,231)" stroke-width="1" opacity="1" d="M 373.5 80 L 378 82.5 L 376.5 82 Q 372.7 81.7 373.5 80 Z " /><path fill="rgb(216,225,231)" stroke="rgb(216,225,231)" stroke-width="1" opacity="1" d="M 384 80 L 395.5 80 L 397 81.5 L 396.5 83 L 396 81 L 385.5 81 L 384.5 82 L 384 80 Z " /><path fill="rgb(216,225,231)" stroke="rgb(216,225,231)" stroke-width="1" opacity="1" d="M 415.5 80 L 426.5 80 L 427 81.5 L 425.5 81 L 415.5 81 L 414 82.5 L 403.5 106 L 402 102.5 Q 404.3 101.2 403 96.5 L 409 83 L 412.5 84 L 415.5 80 Z " /><path fill="rgb(216,225,231)" stroke="rgb(216,225,231)" stroke-width="1" opacity="1" d="M 240.5 82 L 252 117.5 L 252 121.5 L 246 136 L 255.5 136 L 256.5 135 L 255.5 137 L 240 138 L 247 122.5 L 234.5 84 L 228 89.5 L 234.5 83 L 236.5 83 L 239.5 84 L 240.5 82 Z " /><path fill="rgb(216,225,231)" stroke="rgb(216,225,231)" stroke-width="1" opacity="1" d="M 269.5 82 L 269 83.5 L 258.5 107 L 257 102.5 L 258 101.5 L 256.5 99 Q 259.1 99.8 258 96.5 L 264 83 L 269.5 82 Z " /><path fill="rgb(216,225,231)" stroke="rgb(216,225,231)" stroke-width="1" opacity="1" d="M 308.5 82 L 309 83.5 L 307.5 86 L 306 85.5 L 307 88.5 L 306 88.5 L 305.5 87 L 305 89.5 L 306 91.5 L 303.5 97 L 302 96.5 L 303 99.5 L 301.5 99 Q 299.3 98.3 300 100.5 L 299 100.5 L 298 95.5 L 299 95.5 L 299.5 97 L 303 84.5 L 304.5 83 L 307.5 84 L 308.5 82 Z " /><path fill="rgb(216,225,231)" stroke="rgb(216,225,231)" stroke-width="1" opacity="1" d="M 333.5 82 L 334 83.5 L 326 104 Q 322.7 105.1 324 101 L 326 100.5 L 324.5 97 L 323.5 99 L 323 97.5 L 329.5 83 L 333.5 82 Z " /><path fill="rgb(216,225,231)" stroke="rgb(216,225,231)" stroke-width="1" opacity="1" d="M 349.5 82 L 351 89 L 357.5 87 L 366.5 87 L 369 88 L 370 90.5 L 369 92.5 L 369.5 94 L 363 93.5 L 364 91.5 Q 362.3 87.3 354.5 89 L 351.5 90 L 349.5 90 L 345 91 Q 345.8 87.6 343 86.5 L 344.5 84 L 346.5 84 Q 350 85 349.5 82 Z " /><path fill="rgb(216,225,231)" stroke="rgb(216,225,231)" stroke-width="1" opacity="1" d="M 295.5 83 L 296 85.5 L 295 85.5 L 295.5 83 Z " /><path fill="rgb(216,225,231)" stroke="rgb(216,225,231)" stroke-width="1" opacity="1" d="M 320.5 83 L 321 85.5 L 320 85.5 L 320.5 83 Z " /><path fill="rgb(216,225,231)" stroke="rgb(216,225,231)" stroke-width="1" opacity="1" d="M 379.5 83 Q 385.4 80.9 384 85.5 L 385 85.5 L 385.5 84 L 386 85.5 L 385 88.5 L 386 88.5 L 386.5 87 L 387 88.5 L 386 91.5 L 387 91.5 L 387.5 90 L 389 95.5 L 388 97.5 L 390 97.5 L 389 101.5 L 390 101.5 L 390.5 100 L 391 101.5 L 390 104.5 L 391 104.5 L 391.5 103 L 392 104.5 L 391 107.5 L 392 107.5 L 392.5 106 L 396 117.5 L 395 121.5 L 396 121.5 L 396.5 119 L 397 121.5 L 392.5 130 L 391 129.5 L 392 132.5 L 391 136 L 400.5 136 L 401.5 135 L 400.5 137 L 385 138 L 391 124.5 L 391 119.5 Q 385.7 108.8 383.5 95 L 382.5 104 L 382 88.5 L 379.5 83 Z M 384 89 L 383 93 L 384 93 L 384 89 Z " /><path fill="rgb(216,225,231)" stroke="rgb(216,225,231)" stroke-width="1" opacity="1" d="M 210.5 86 L 212 94.5 L 210 95 L 210.5 86 Z " /><path fill="rgb(216,225,231)" stroke="rgb(216,225,231)" stroke-width="1" opacity="1" d="M 296.5 87 L 297 89.5 L 296 89.5 L 296.5 87 Z " /><path fill="rgb(216,225,231)" stroke="rgb(216,225,231)" stroke-width="1" opacity="1" d="M 186.5 90 L 188.5 93 L 186.5 90 Z " /><path fill="rgb(216,225,231)" stroke="rgb(216,225,231)" stroke-width="1" opacity="1" d="M 297.5 91 L 298 93.5 L 297 93.5 L 297.5 91 Z " /><path fill="rgb(216,225,231)" stroke="rgb(216,225,231)" stroke-width="1" opacity="1" d="M 276.5 92 L 277 93.5 L 274.5 98 L 274 96.5 L 276.5 92 Z " /><path fill="rgb(216,225,231)" stroke="rgb(216,225,231)" stroke-width="1" opacity="1" d="M 225.5 93 L 222.5 97 L 225.5 93 Z " /><path fill="rgb(216,225,231)" stroke="rgb(216,225,231)" stroke-width="1" opacity="1" d="M 400.5 95 L 401 97.5 L 400 97.5 L 400.5 95 Z " /><path fill="rgb(216,225,231)" stroke="rgb(216,225,231)" stroke-width="1" opacity="1" d="M 313.5 96 L 314 97.5 L 312 100.5 L 314 101.5 L 314.5 99 L 319 117.5 L 320.5 119 L 330.5 117 L 331 119 L 314.5 120 L 313 118.5 L 310.5 105 L 308.5 109 L 308 107.5 L 310.5 103 L 312 103.5 L 311 100.5 L 313.5 96 Z M 315 103 L 314 106 L 315 106 L 315 103 Z M 316 107 L 315 110 L 316 110 L 316 107 Z " /><path fill="rgb(216,225,231)" stroke="rgb(216,225,231)" stroke-width="1" opacity="1" d="M 350.5 97 L 346 102.5 L 344 109.5 Q 345.3 115.3 349.5 118 L 357.5 120 L 365.5 118 L 369.5 115 L 369 116.5 L 369.5 119 L 371.5 119 L 381 119 L 381 106.5 L 382 106.5 L 382 118.5 L 380.5 120 L 366.5 121 L 363.5 119 Q 357.4 122.4 346.5 121 L 340 116.5 L 339 107.5 L 342 102 L 350.5 97 Z " /><path fill="rgb(216,225,231)" stroke="rgb(216,225,231)" stroke-width="1" opacity="1" d="M 223.5 98 L 224.5 100 L 223.5 98 Z " /><path fill="rgb(216,225,231)" stroke="rgb(216,225,231)" stroke-width="1" opacity="1" d="M 209 100 L 212 101.5 L 216 109.5 L 215 111.5 L 218 112.5 L 221.5 119 L 229 119.5 L 215.5 120 L 210.5 111 L 209 111.5 L 209 100 Z M 211 101 L 211 110 L 212 104 L 211 101 Z " /><path fill="rgb(216,225,231)" stroke="rgb(216,225,231)" stroke-width="1" opacity="1" d="M 365.5 100 L 370 100.5 L 370 102.5 L 369.5 107 L 368.5 105 L 368 107.5 Q 370.8 109.3 366.5 111 L 364 110 L 364 102 L 361.5 102 L 357.5 105 L 359.5 102 L 365.5 100 Z " /><path fill="rgb(216,225,231)" stroke="rgb(216,225,231)" stroke-width="1" opacity="1" d="M 301.5 101 L 302 102.5 L 300.5 105 L 300 102.5 L 301.5 101 Z " /><path fill="rgb(216,225,231)" stroke="rgb(216,225,231)" stroke-width="1" opacity="1" d="M 226.5 103 L 229 106.5 L 227 105.5 L 226.5 103 Z " /><path fill="rgb(216,225,231)" stroke="rgb(216,225,231)" stroke-width="1" opacity="1" d="M 356.5 106 L 357 108.5 L 356 108.5 L 356.5 106 Z " /><path fill="rgb(216,225,231)" stroke="rgb(216,225,231)" stroke-width="1" opacity="1" d="M 165.5 109 L 171 109.5 L 165.5 110 L 165.5 109 Z " /><path fill="rgb(216,225,231)" stroke="rgb(216,225,231)" stroke-width="1" opacity="1" d="M 189.5 109 L 183.5 116 L 168.5 120 L 154.5 120 L 147 118 L 149.5 110 L 152.5 111 L 154 110.5 L 152 114.5 Q 159.1 120.4 174.5 118 L 183.5 115 L 189.5 109 Z " /><path fill="rgb(216,225,231)" stroke="rgb(216,225,231)" stroke-width="1" opacity="1" d="M 230.5 110 L 231.5 112 L 230.5 110 Z " /><path fill="rgb(216,225,231)" stroke="rgb(216,225,231)" stroke-width="1" opacity="1" d="M 362.5 111 L 365 111.5 L 362.5 112 L 362.5 111 Z " /><path fill="rgb(216,225,231)" stroke="rgb(216,225,231)" stroke-width="1" opacity="1" d="M 208.5 114 L 209 118.5 L 208 118.5 L 208.5 114 Z " /><path fill="rgb(216,225,231)" stroke="rgb(216,225,231)" stroke-width="1" opacity="1" d="M 404.5 128 L 405 129.5 L 403.5 132 L 403 130.5 L 404.5 128 Z " /><path fill="rgb(216,225,231)" stroke="rgb(216,225,231)" stroke-width="1" opacity="1" d="M 99.5 133 L 101 133.5 L 88.5 141 L 81.5 141 L 81.5 140 L 99.5 133 Z " /><path fill="rgb(18,130,201)" stroke="rgb(18,130,201)" stroke-width="1" opacity="1" d="M 16 30 L 36.5 36 L 62.5 47 L 144 86 Q 135.2 103.9 119.5 116 L 105.5 119 L 106.5 117 L 108 116.5 L 104.5 116 Q 102.2 118.7 96.5 118 Q 74.3 112.7 61 98.5 L 77.5 98 L 78.5 97 L 102.5 97 L 103.5 96 L 112 95.5 L 95.5 91 L 70.5 79 L 52.5 67 L 25 44 L 18 35.5 L 16 30 Z " /><path fill="rgb(18,130,201)" stroke="rgb(18,130,201)" stroke-width="1" opacity="1" d="M 173.5 64 Q 185 62.5 191 66.5 L 189 74 L 176.5 72 L 170.5 74 L 168 76.5 Q 167 83 171.5 84 L 185.5 90 L 190 94.5 L 192 102.5 Q 190.4 111.4 183.5 115 Q 174.9 119.9 159.5 118 L 152 114.5 L 155 107 Q 160.6 110 170.5 110 L 176.5 108 L 179 105.5 Q 180.3 98.3 175.5 97 L 163.5 92 L 159 88.5 Q 154.5 85 156 75.5 L 163.5 67 L 173.5 64 Z " /><path fill="rgb(18,130,201)" stroke="rgb(18,130,201)" stroke-width="1" opacity="1" d="M 201 64 L 212 64 L 212 71.5 L 211 72.5 L 210 95 Q 212.7 96.1 212 93.5 L 223.5 81 L 234.5 81 L 235 82.5 L 222 96.5 L 235 117.5 L 233.5 119 L 221.5 119 L 210.5 100 L 209 100.5 L 209 113.5 L 208 119 L 197 119 L 197 107.5 L 198 106.5 L 198 94.5 L 199 93.5 L 200 66.5 L 201 64 Z " /><path fill="rgb(18,130,201)" stroke="rgb(18,130,201)" stroke-width="1" opacity="1" d="M 357.5 80 L 372.5 80 L 380 84.5 L 382 88.5 L 382 105.5 L 381 106.5 L 381 119 L 371.5 119 L 370 117.5 L 369.5 115 L 365.5 118 L 357.5 120 Q 356.3 117.8 351.5 119 L 346 114.5 L 344 108.5 Q 345.4 100.4 351.5 97 Q 358.6 92.8 370 94 L 369 88 Q 365.7 85.9 357.5 87 L 351 89 L 350 82 L 357.5 80 Z M 366 100 L 360 102 L 356 107 L 357 111 L 360 112 L 367 111 L 370 107 L 370 100 L 366 100 Z " /><path fill="rgb(18,130,201)" stroke="rgb(18,130,201)" stroke-width="1" opacity="1" d="M 240.5 81 L 251.5 81 L 252 84.5 L 258.5 107 L 270 81 L 280.5 81 L 281 83.5 L 255.5 136 L 246.5 136 L 246 133.5 Q 251.6 128.1 252 117.5 L 240.5 81 Z " /><path fill="rgb(18,130,201)" stroke="rgb(18,130,201)" stroke-width="1" opacity="1" d="M 283.5 81 L 293.5 81 L 295 82.5 L 300.5 105 L 309 81 L 318.5 81 L 320 82.5 L 324 104 Q 327 105.3 326 101.5 L 334 81 L 344.5 81 L 345 83.5 L 333 112.5 L 329.5 118 L 321.5 118 L 320.5 119 L 319 117.5 L 313.5 96 L 303.5 118 L 293.5 118 L 293 115.5 L 283.5 81 Z " /><path fill="rgb(18,130,201)" stroke="rgb(18,130,201)" stroke-width="1" opacity="1" d="M 385 81 L 395.5 81 L 396 82.5 L 398 86.5 L 402 104.5 L 403.5 106 L 415.5 81 L 425.5 81 L 426 82.5 L 400.5 136 L 391.5 136 L 391 133.5 L 397 119.5 L 385 81 Z " /><path fill="rgb(18,130,201)" stroke="rgb(18,130,201)" stroke-width="1" opacity="1" d="M 111.5 121 L 109.5 124 L 92.5 133 L 86.5 135 L 81.5 135 L 80.5 133 L 111.5 121 Z " /></svg>